# xmcd
#
# Track frame offsets:
#	150
#	11334
#	20452
#	34245
#	45868
#	58470
#	69563
#	89270
#	108486
#	123415
#	142450
#	148458
#	159928
#	171742
#	186002
#	198973
#	215834
#	231532
#	242901
#	252023
#	267087
#	277181
#	288397
#	298975
#	314924
#
# Disc length: 4311
#
# Revision: 2
# Processed by: cddbd v1.5.1PL0 Copyright (c) Steve Scherf et al.
# Submitted via: CDex 1.50
# Normalized: r1:DSETVAR1,TDELIM( - )
#
DISCID=9e10d519
DTITLE=Various Artist - Country Classics (Volume Two)
DYEAR=1994
DGENRE=Country
TTITLE0=Tammy Wynette - Stand By Your Man
TTITLE1=Frankie Laine - Rawhide
TTITLE2=Willie Nelson - Home Is When Your Happy
TTITLE3=Dolly Parton - Letter To Heaven
TTITLE4=Faron Young - It's Four In The Morning
TTITLE5=Jeannie C. Riley - Box Of Memories
TTITLE6=Bellamy Brothers - If I Said You Had A Beautiful Body
TTITLE7=Tina Turner - Loving Him Was Easier
TTITLE8=Ed Bruce - Texas When I Die
TTITLE9=Bertie Higgins - Key Largo
TTITLE10=Jim Reeves - Have I Told You Lately That I Love You
TTITLE11=Patsy Cline - I've Loved And Lost Again
TTITLE12=Kenny Rogers - Me And Bobby McGee
TTITLE13=Dottie West - What Are We Doing In Love
TTITLE14=Merle Haggard - Okie From Muskogee
TTITLE15=Tanya Tucker - The Night They Drove Ole Dixie Down
TTITLE16=Johnny Rodriguez - North Of The Border
TTITLE17=Kitty Wells - It Wasn't God Who Made Hony Tonk Angels
TTITLE18=Bobby Bare - White Freight Liner Blues
TTITLE19=Barbara Fairchild - Rocky Top
TTITLE20=Freddy Fender - Before The Next Teardrop Falls
TTITLE21=Lynn Anderson - Even Cowgirls Get The Blues
TTITLE22=George Jones - The One I Loved Back Then
TTITLE23=Kathy Mattea - Heart Of The Country
TTITLE24=Waylon Jennings - Abeline
EXTD=YEAR: 1994
EXTT0=
EXTT1=
EXTT2=
EXTT3=
EXTT4=
EXTT5=
EXTT6=
EXTT7=
EXTT8=
EXTT9=
EXTT10=
EXTT11=
EXTT12=
EXTT13=
EXTT14=
EXTT15=
EXTT16=
EXTT17=
EXTT18=
EXTT19=
EXTT20=
EXTT21=
EXTT22=
EXTT23=
EXTT24=
PLAYORDER=
